<svg xmlns="http://www.w3.org/2000/svg" xmlns:xlink="http://www.w3.org/1999/xlink" x="0px" y="0px" style="enable-background:new 0 0 470 380" version="1.1" viewBox="0 0 470 380" xml:space="preserve">
    <polyline points="255.2,132.1 255.2,85 295.6,106.2 295.6,248.4 255.2,267.5 	"/>
    <path d="M214.9,79.8"/>
    <polyline points="295.6,106.2 336,86.2 295.6,64.8 295.6,26.9 336,47.1 336,224.1 377.4,206 377.4,26.9 336,47.1 	"/>
    <line x1="295.6" x2="255.2" y1="64.8" y2="85"/>
    <polyline points="295.6,26.9 336.5,7.1 377.4,26.9 	"/>
    <polyline points="281.7,71.7 255.2,59 214.9,79.9 255.2,98.5 	"/>
    <line x1="295.6" x2="336" y1="205.4" y2="224.1"/>
    <path d="M214.8,112.4"/>
    <polyline points="92.6,185.1 92.6,352.6 133,372.8 133,190.3 173.4,211.5 173.4,353.7 133,372.8 	"/>
    <polyline points="173.4,211.5 213.8,191.5 173.4,170.1 173.4,132.2 213.8,152.4 213.8,329.4 255.2,311.3 255.2,132.2 
		213.8,152.4 	"/>
    <line x1="173.4" x2="133" y1="170.1" y2="190.3"/>
    <polyline points="173.4,132.2 214.3,112.4 255.2,132.2 	"/>
    <polyline points="159.4,177 133,164.3 92.6,185.2 133,203.8 	"/>
    <line x1="173.4" x2="213.8" y1="310.7" y2="329.4"/>
    <path d="M92.6,353.1"/>
    <line x1="214.7" x2="214.7" y1="79.9" y2="112.4"/>
</svg>
