<svg version="1.1" xmlns="http://www.w3.org/2000/svg" xmlns:xlink="http://www.w3.org/1999/xlink" x="0px" y="0px"
	 viewBox="0 0 319 707" style="enable-background:new 0 0 319 707;" xml:space="preserve">
<style type="text/css">
	.gradiented{fill:none;stroke:url(#GRADIENT);}
</style>
	<linearGradient id="GRADIENT" gradientUnits="userSpaceOnUse" x1="66.4329" y1="402.6029" x2="250.5955" y2="402.6029">
		<stop  offset="0" style="stop-color:#22233F"/>
		<stop  offset=".5" style="stop-color:#87E8F7"/>
		<stop  offset="1" style="stop-color:#22233F"/>
	</linearGradient>
<g id="back" class="gradiented">
	<line x1="176.5" y1="302.2" x2="99.7" y2="167.4"/>
	<line x1="220.8" y1="115.6" x2="191.8" y2="167.4"/>
	<line x1="161.8" y1="167.4" x2="130.1" y2="115.6"/>
	<line x1="174.1" y1="570.6" x2="142.1" y2="515.6"/>
	<line x1="50.8" y1="515.4" x2="205.1" y2="515.4"/>
	<line x1="221.5" y1="380.9" x2="251" y2="435.3"/>
	<line x1="282" y1="488.7" x2="312.1" y2="435.6"/>
	<line x1="297.5" y1="355.7" x2="236.4" y2="355.7"/>
	<line x1="83.3" y1="460.5" x2="20.1" y2="461.1"/>
	<line x1="37.8" y1="329.8" x2="7.1" y2="380.9"/>
	<line x1="159.6" y1="649.6" x2="218.6" y2="649.6"/>
	<polyline points="267.6,302.6 114.1,302.6 80.7,358.9 20.1,461.1 126.1,649.6 160.1,649.6 187.3,702 297.5,515.4 
		251.1,435.6 312,435.3 312.1,435.6 360.1,515.6 282.1,649.6 218.3,649.5 173.9,570.2 174.1,570.6 297.5,355.7 267.1,302.6 
		221.5,380.9 7.1,380.9 -39,301 38.8,167.4 191.8,167.4 267.1,302.6 297.5,250.3 220.8,115.6 130.1,115.6 21.3,301 98.3,435.3 
		20.1,568.6 95.7,702 126.4,649.5 	"/>
	<line x1="98.3" y1="435.3" x2="251" y2="435.3"/>
	<line x1="146.1" y1="248.6" x2="114.1" y2="302.6"/>
</g>
<g id="first" class="gradiented">
			<line x1="79.6" y1="460.6" x2="77.4" y2="460.6"/>
			<line x1="70" y1="460.8" x2="26" y2="461.5"/>
			<polyline points="22.3,461.6 20.1,461.6 21.2,459.7 			"/>
			<line x1="24.8" y1="453.5" x2="64.2" y2="385.6"/>
			<polyline points="66,382.5 67.1,380.6 69.3,380.6 			"/>
			<line x1="76.6" y1="380.6" x2="215.2" y2="380.6"/>
			<polyline points="218.9,380.6 221.1,380.6 222.2,382.6 			"/>
			<line x1="225.9" y1="389.4" x2="248.2" y2="430.3"/>
			<polyline points="250,433.7 251.1,435.6 250,437.5 			"/>
			<line x1="246.5" y1="443.7" x2="208" y2="510.6"/>
			<polyline points="206.2,513.7 205.1,515.6 202.9,515.6 			"/>
			<line x1="195.6" y1="515.6" x2="57" y2="515.6"/>
			<polyline points="53.3,515.6 51.1,515.6 52.2,513.7 			"/>
			<line x1="55.8" y1="507.5" x2="95.2" y2="440.6"/>
			<polyline points="97,437.5 98.1,435.6 100.3,435.6 			"/>
			<line x1="107.6" y1="435.6" x2="245.7" y2="435.6"/>
			<line x1="249.4" y1="435.6" x2="251.6" y2="435.6"/>
			<line x1="69.1" y1="384.6" x2="70.2" y2="386.5"/>
			<line x1="73.5" y1="392.3" x2="93.3" y2="426.8"/>
			<line x1="95" y1="429.7" x2="96.1" y2="431.6"/>
			<line x1="22.1" y1="465.6" x2="23.2" y2="467.5"/>
			<line x1="26.4" y1="473" x2="45.4" y2="505.9"/>
			<line x1="47" y1="508.7" x2="48.1" y2="510.6"/>
</g>
</svg>
