<svg xmlns="http://www.w3.org/2000/svg" xmlns:xlink="http://www.w3.org/1999/xlink" id="Layer_1" x="0px" y="0px" style="enable-background:new 0 0 319 600" version="1.1" viewBox="0 0 319 600" xml:space="preserve">
    	<linearGradient id="GradientISO" gradientUnits="userSpaceOnUse" x1="0" y1="0" x2="100%" y2="0">
		<stop  offset="0" style="stop-color:#22233F"/>
		<stop  offset="0.5" style="stop-color:#87E8F7"/>
		<stop  offset="1" style="stop-color:#22233F"/>
	</linearGradient>
    <g id="back">
        <line x1="176.5" x2="99.7" y1="193.7" y2="58.9" class="st0"/>
        <line x1="220.8" x2="191.8" y1="7.1" y2="58.9" class="st1"/>
        <line x1="161.8" x2="130.1" y1="58.9" y2="7.1" class="st2"/>
        <line x1="174.1" x2="142.1" y1="462.1" y2="407.1" class="st3"/>
        <line x1="50.8" x2="205.1" y1="406.9" y2="406.9" class="st4"/>
        <line x1="221.5" x2="251" y1="272.4" y2="326.8" class="st5"/>
        <line x1="282" x2="312.1" y1="380.2" y2="327.1" class="st6"/>
        <line x1="297.5" x2="236.4" y1="247.2" y2="247.2" class="st7"/>
        <line x1="83.3" x2="20.1" y1="352" y2="352.6" class="st8"/>
        <line x1="37.8" x2="7.1" y1="221.3" y2="272.4" class="st9"/>
        <line x1="159.6" x2="218.6" y1="541.1" y2="541.1" class="st10"/>
        <polyline points="267.6,194.1 114.1,194.1 80.7,250.4 20.1,352.6 126.1,541.1 160.1,541.1 187.3,593.5 297.5,406.9 
		251.1,327.1 312,326.8 312.1,327.1 360.1,407.1 282.1,541.1 218.3,541 173.9,461.7 174.1,462.1 297.5,247.2 267.1,194.1 
		221.5,272.4 7.1,272.4 -39,192.5 38.8,58.9 191.8,58.9 267.1,194.1 297.5,141.8 220.8,7.1 130.1,7.1 21.3,192.5 98.3,326.8 
		20.1,460.1 95.7,593.5 126.4,541 	" class="st11"/>
        <line x1="98.3" x2="251" y1="326.8" y2="326.8" class="st12"/>
        <line x1="146.1" x2="114.1" y1="140.1" y2="194.1" class="st13"/>
    </g>
    <g id="first">
        <line x1="79.6" x2="77.4" y1="352.1" y2="352.1" class="st14"/>
        <line x1="70" x2="26" y1="352.3" y2="353" class="st15"/>
        <polyline points="22.3,353.1 20.1,353.1 21.2,351.2 	" class="st16"/>
        <line x1="24.8" x2="64.2" y1="345" y2="277.1" class="st17"/>
        <polyline points="66,274 67.1,272.1 69.3,272.1 	" class="st18"/>
        <line x1="76.6" x2="215.2" y1="272.1" y2="272.1" class="st19"/>
        <polyline points="218.9,272.1 221.1,272.1 222.2,274.1 	" class="st20"/>
        <line x1="225.9" x2="248.2" y1="280.9" y2="321.8" class="st21"/>
        <polyline points="250,325.2 251.1,327.1 250,329 	" class="st22"/>
        <line x1="246.5" x2="208" y1="335.2" y2="402.1" class="st23"/>
        <polyline points="206.2,405.2 205.1,407.1 202.9,407.1 	" class="st24"/>
        <line x1="195.6" x2="57" y1="407.1" y2="407.1" class="st25"/>
        <polyline points="53.3,407.1 51.1,407.1 52.2,405.2 	" class="st26"/>
        <line x1="55.8" x2="95.2" y1="399" y2="332.1" class="st27"/>
        <polyline points="97,329 98.1,327.1 100.3,327.1 	" class="st28"/>
        <line x1="107.6" x2="245.7" y1="327.1" y2="327.1" class="st29"/>
        <line x1="249.4" x2="251.6" y1="327.1" y2="327.1" class="st30"/>
        <line x1="69.1" x2="70.2" y1="276.1" y2="278" class="st31"/>
        <line x1="73.5" x2="93.3" y1="283.8" y2="318.3" class="st32"/>
        <line x1="95" x2="96.1" y1="321.2" y2="323.1" class="st33"/>
        <line x1="22.1" x2="23.2" y1="357.1" y2="359" class="st34"/>
        <line x1="26.4" x2="45.4" y1="364.5" y2="397.4" class="st35"/>
        <line x1="47" x2="48.1" y1="400.2" y2="402.1" class="st36"/>
    </g>
</svg>
