<svg xmlns="http://www.w3.org/2000/svg" xmlns:xlink="http://www.w3.org/1999/xlink" id="Layer_1" x="0px" y="0px" style="enable-background:new 0 0 319 699.9" version="1.1" viewBox="0 0 319 699.9" xml:space="preserve">
    <linearGradient id="GradientISO" x1="66.4329" x2="250.5955" y1="364.7" y2="364.7" gradientTransform="matrix(1 0 0 -1 0 491)" gradientUnits="userSpaceOnUse">
        <stop offset="0" style="stop-color:#22233F"/>
        <stop offset="0.5" style="stop-color:#87E8F7"/>
        <stop offset="1" style="stop-color:#22233F"/>
    </linearGradient>
    <g id="back">
        <line x1="316.6" x2="2.1" y1="387.3" y2="0" class="st0"/>
        <line x1="316.6" x2="2.1" y1="389.9" y2="53.3" class="st1"/>
        <line x1="316.6" x2="2.1" y1="392.6" y2="106.6" class="st2"/>
        <line x1="316.6" x2="2.1" y1="395.2" y2="159.9" class="st3"/>
        <line x1="316.6" x2="2.1" y1="397.9" y2="213.3" class="st4"/>
        <line x1="316.6" x2="2.1" y1="400.5" y2="266.6" class="st5"/>
        <line x1="316.6" x2="2.1" y1="403.2" y2="319.9" class="st6"/>
        <line x1="316.6" x2="2.1" y1="405.8" y2="373.2" class="st7"/>
        <line x1="316.6" x2="2.1" y1="408.5" y2="426.5" class="st8"/>
        <line x1="316.6" x2="2.1" y1="411.1" y2="479.8" class="st9"/>
        <line x1="316.6" x2="2.1" y1="413.8" y2="533.1" class="st10"/>
        <line x1="316.6" x2="2.1" y1="416.4" y2="586.4" class="st11"/>
        <line x1="316.6" x2="2.1" y1="419" y2="639.7" class="st12"/>
        <line x1="316.6" x2="2.1" y1="421.7" y2="693" class="st13"/>
    </g>
    <g id="front">
        <line x1="316.6" x2="2.1" y1="405.8" y2="373.2" class="st14"/>
        <line x1="316.6" x2="2.1" y1="408.5" y2="426.5" class="st15"/>
        <line x1="316.6" x2="2.1" y1="411.1" y2="479.8" class="st16"/>
    </g>
</svg>
