<svg xmlns="http://www.w3.org/2000/svg" xmlns:xlink="http://www.w3.org/1999/xlink" id="Layer_1" x="0px" y="0px" style="enable-background:new 0 0 319 600" version="1.1" viewBox="0 0 319 600" xml:space="preserve">
    <linearGradient id="GradientISO" x1="66.4329" x2="250.5955" y1="364.7" y2="364.7" gradientTransform="matrix(1 0 0 -1 0 491)" gradientUnits="userSpaceOnUse">
        <stop offset="0" style="stop-color:#22233F"/>
        <stop offset="0.5" style="stop-color:#87E8F7"/>
        <stop offset="1" style="stop-color:#22233F"/>
    </linearGradient>
    <g id="first">
        <circle cx="162.8" cy="313.7" r="60.3" class="st0"/>
        <circle cx="162.8" cy="313.7" r="75.7" class="st1"/>
        <circle cx="162.8" cy="313.7" r="95.4" class="st2"/>
    </g>
    <g id="back">
        <circle cx="162.8" cy="313.7" r="60.3" class="st3"/>
        <circle cx="162.8" cy="313.7" r="75.7" class="st4"/>
        <circle cx="162.8" cy="313.7" r="95.4" class="st5"/>
        <circle cx="162.8" cy="313.7" r="118.8" class="st6"/>
        <circle cx="162.8" cy="313.7" r="188" class="st7"/>
        <ellipse cx="162.8" cy="313.7" class="st8" rx="48.4" ry="48.4" transform="matrix(7.088901e-02 -0.9975 0.9975 7.088901e-02 -161.6515 453.8526)"/>
        <circle cx="162.8" cy="313.7" r="37.7" class="st9"/>
        <polygon points="162.8,313.7 162.8,313.7 162.8,313.7 162.8,313.7" class="st10"/>
        <polygon points="162.8,313.7 162.8,313.7 162.8,313.7 162.8,313.7" class="st11"/>
        <circle cx="162.8" cy="313.7" r="149.2" class="st12"/>
    </g>
</svg>
