<svg xmlns="http://www.w3.org/2000/svg" xmlns:xlink="http://www.w3.org/1999/xlink" id="Layer_1" x="0px" y="0px" style="enable-background:new 0 0 800 266" version="1.1" viewBox="0 0 800 266" xml:space="preserve">
    <path d="M554.5,82.1h-7.7l-1.3,2.4c-2.3,0.2-4.7,0.4-7.2,0.4c-15.7,0-18-3.5-18-21c0-17.6,2.4-21.6,18-21.6
	c2.7,0,5.4,0.2,7.7,0.4l1.5,2.4l6.9,0.1l0,0l0.1-9.2c0,0-8.7-2.5-19.3-2.5c-19.6,0-26.9,5.3-26.9,30.5s7.3,31.4,26.9,31.4
	c13,0,19.3-4.1,19.3-4.1L554.5,82.1z" style="fill:#FFFFFF"/>
    <path d="M608,82.1h-7.7l-1.3,2.4c-2.3,0.2-4.7,0.4-7.3,0.4c-15.7,0-18-3.5-18-21c0-17.6,2.4-21.6,18-21.6
	c2.7,0,5.4,0.2,7.8,0.4l1.5,2.4l6.9,0.1l0,0l0.1-9.2c0,0-8.7-2.5-19.3-2.5c-19.6,0-26.9,5.3-26.9,30.5s7.3,31.4,26.9,31.4
	c13,0,19.3-4.1,19.3-4.1L608,82.1z" style="fill:#FFFFFF"/>
    <path d="M495.3,84.5V33.4h-11.2v51.1c-2.1,0.7-9,1.2-17.7,0.5c-5.4-0.4-7.3-3.4-7.3-9.3V43.8
	c0-10.2-6.4-10.4-7.7-10.4s-6.2,0-6.2,0v9.1l3,0.8c0,0,0,31,0,34.4c0,10.8,5.4,16.4,14.9,16.4c9,0,10.1,0,16.6,0l4.6-8
	c0,0,1.5,8,8.5,8h5.1v-7.3L495.3,84.5z" style="fill:#FFFFFF"/>
    <path d="M59.4,94.3c-7.1,0-8-6.8-8-6.8L39,94.3c0,0-0.7,0.1-6.4,0.1c-21.1,0-24-12.4-24-30.3
	c0-17.2,3.1-31.1,22.6-31.1c5.4,0,7.6,0.8,11.3,1.3l8.3,6V8.7h11.2V84l2.5,1.7v8.5L59.4,94.3L59.4,94.3z M50.9,43.6
	c-1.4-0.1-9.2-0.9-15.7-0.9c-12.7,0-15.2,5.7-15.2,21.9c0,17.8,2.8,20.5,15.5,20.5c7.4,0,15.4-1.5,15.4-1.5L50.9,43.6L50.9,43.6z" style="fill:#FFFFFF"/>
    <path d="M199.9,94.1V42.6l-2.6-3.3v-6H211v60.8H199.9z" style="fill:#FFFFFF"/>
    <path d="M344.5,84.6c0,0,0-30.5,0-34c0-14.2-1.2-17.2-15.5-17.2c-6.7,0-11,0.1-12.8,0.1
	c-1.4,0-9.1,5.7-9.1,5.7s-1.8-5.7-8.5-5.7h-5.2V42l2.5,2v50.6h11.3c0,0,0.1-46.8,0.1-48.6c0,0,5.3-3.3,14.5-3.3c2.6,0,3.2,0,3.2,0
	c6.3,0,8.6,0.5,8.6,8.3v33.6c0,7.3,2.6,9.9,8.4,9.9c1.3,0,5.1,0,5.1,0v-7.7L344.5,84.6z" style="fill:#FFFFFF"/>
    <path d="M361,49.2V34.6h14.7v14.6H361z M361,93.1V78.5h14.7v14.6H361z" style="fill:#FFFFFF"/>
    <path d="M103.4,84.6c11.3,0,17.4-2.1,17.4-2.1l2.9,8.3c0,0-6.3,3.6-19.3,3.6c-19.1,0-30.6-3.6-30.6-30.6
	c0-8,1.1-15.6,3-20.1c3.4-8.1,12.7-10.5,26.1-10.5c10.4,0,17.9,1.2,21.7,6c3.1,4.1,4.4,7.9,4.4,17.9c0,2.3-0.1,4.4-0.2,7.7
	l-35.7,4.3L85.3,64c0,0,0.1,13.7,3.3,16.9C91.7,84.3,95.6,84.6,103.4,84.6z M104.1,42c-18.1,0-18,3.7-18.7,20.6l33.1-5.7
	C118.4,45,117.5,42,104.1,42z" style="fill:#FFFFFF"/>
    <path d="M645.7,84.6c11.3,0,17.4-2.1,17.4-2.1l2.9,8.3c0,0-6.4,3.6-19.3,3.6c-19.1,0-30.6-3.6-30.6-30.6
	c0-8,1.2-15.6,3-20.1c3.4-8.1,12.7-10.5,26.1-10.5c10.4,0,17.9,1.2,21.7,6c3.1,4.1,4.3,7.9,4.3,17.9c0,2.3-0.1,4.4-0.2,7.7
	l-35.8,4.3l-7.6-5.2c0,0,0.1,13.7,3.3,16.9C634.1,84.3,638,84.6,645.7,84.6z M646.4,42c-18.1,0-18,3.7-18.7,20.6l33.1-5.7
	C660.8,45,659.8,42,646.4,42z" style="fill:#FFFFFF"/>
    <path d="M162.9,95.1c-14,0-22.6-3.8-22.6-3.8l2.3-8.2c0,0,9.7,2.6,19.7,2.6c9.7,0,13.6-3.3,13.6-9
	c0-7.7-4.4-6.3-14.6-7.1C149.2,68.8,139,69,139,52.3c0-15.1,8.2-19,24.2-19c11.1,0,19.4,2.7,19.4,2.7l-2.1,8.2c0,0-7.4-1.3-17.1-1.3
	c-10.2,0-14,1.8-14,8.5c0,7.5,2.3,7.9,14.9,7.9c13.4,0,22.1,0.7,22.1,17.2C186.5,91.6,177,95.1,162.9,95.1z" style="fill:#FFFFFF"/>
    <path d="M704.8,95.2c-14,0-22.6-3.8-22.6-3.8l2.3-8.2c0,0,9.7,2.6,19.7,2.6c9.7,0,13.6-3.3,13.6-9
	c0-7.8-4.4-6.3-14.6-7.1c-12.1-0.8-22.2-0.7-22.2-17.3c0-15.1,8.2-19.1,24.2-19.1c11.1,0,19.4,2.7,19.4,2.7l-2.1,8.3
	c0,0-7.4-1.3-17.1-1.3c-10.2,0-14,1.8-14,8.5c0,7.5,2.3,7.9,14.9,7.9c13.4,0,22.1,0.7,22.1,17.2C728.4,91.7,718.8,95.2,704.8,95.2z" style="fill:#FFFFFF"/>
    <path d="M759.1,95.2c-14,0-22.6-3.8-22.6-3.8l2.3-8.2c0,0,9.7,2.6,19.7,2.6c9.7,0,13.6-3.3,13.6-9
	c0-7.8-4.4-6.3-14.6-7.1c-12.1-0.8-22.2-0.7-22.2-17.3c0-15.1,8.2-19.1,24.1-19.1c11.1,0,19.4,2.7,19.4,2.7l-2.1,8.3
	c0,0-7.4-1.3-17.1-1.3c-10.2,0-14,1.8-14,8.5c0,7.5,2.3,7.9,14.9,7.9c13.4,0,22.1,0.7,22.1,17.2C782.7,91.7,773.2,95.2,759.1,95.2z" style="fill:#FFFFFF"/>
    <path d="M412.9,95.2c-14,0-22.6-3.8-22.6-3.8l2.3-8.2c0,0,9.7,2.6,19.7,2.6c9.7,0,13.6-3.3,13.6-9
	c0-7.8-4.4-6.3-14.6-7.1c-12.1-0.8-22.2-0.7-22.2-17.3c0-15.1,8.2-19.1,24.2-19.1c11.1,0,19.4,2.7,19.4,2.7l-2.1,8.3
	c0,0-7.4-1.3-17.1-1.3c-10.2,0-14,1.8-14,8.5c0,7.5,2.3,7.9,14.9,7.9c13.4,0,22.1,0.7,22.1,17.2C436.7,91.7,427,95.2,412.9,95.2z" style="fill:#FFFFFF"/>
    <path d="M283.6,93.9c0-6.8-3.8-9.3-15.6-8.8c-4.1,0.2-10.9,0.2-19.8,0.2c-7.5,0-11.5-2.5-11.5-10.1
	c0-2.1,0-4.3,0-4.3l7,6c9.3,0.3,16.2,0.2,20.3,0c10.4-0.5,12.2-6.3,13.2-11.8c0.6-3.3,0.8-12.7,0.1-16.4l-6.6-5.5l10.7-1.2l0.1-8.5
	c-22,0-20.1,0-28.7,0c-18.8,0-25.5,4.6-26.7,18.1c-0.5,5.9-0.7,19.2-0.1,24.2c1.5,13.4,5.4,18.8,23.8,18.8c4.2,0,7.3,0,17,0
	c3.2,0,4.1,0.5,4.6,1.6c0.4,0.7,0.3,2.6-0.1,3.5c-0.7,1.2-0.7,1.2-10.2,7.3c-1.3,0.8-14,8.6-14,8.6l13.9,3.8c0,0,6.3-4.2,11.2-7.9
	c9.2-7.1,10.8-8.7,11.2-13.5C283.6,97.1,283.6,95.3,283.6,93.9z M237.3,51.2c0.6-3.8,2.2-6.6,7.7-7.7c5.7-1.2,13.8-0.9,17,0.1
	c3.7,1,4.8,2.7,5.3,7.3c0.5,3.7,0.5,6.9,0,9.6c-1.3,7.2-0.5,8.5-30.6,7.2C236.7,58.7,236.9,54.2,237.3,51.2z" style="fill:#FFFFFF"/>
    <text transform="matrix(1 0 0 1 8.6734 195.0569)">
        <tspan x="0" y="0" style="fill:#FFFFFF;font-family:'Eurostile LT', sans-serif;font-size:46.6075px">we’re redesigning our website</tspan><tspan x="0" y="55.9" style="fill:#FFFFFF;font-family:'Eurostile LT', sans-serif;font-size:46.6075px">please come back soon.</tspan>
    </text>
</svg>
